<svg xmlns="http://www.w3.org/2000/svg" width="150" height="150"><desc>green spaceship that looks like a frog. Generated by ChatSVG.</desc>
       <rect width="150" height="150" fill="#006600"></rect>
       <circle cx="75" cy="75" r="40" fill="#009900"></circle>
       <circle cx="60" cy="60" r="10" fill="#000000"></circle>
       <circle cx="90" cy="60" r="10" fill="#000000"></circle>
       <path d="M 75 100 L 60 110 L 90 110 Z" fill="#009900"></path>
     </svg><svg xmlns="http://www.w3.org/2000/svg" width="150" height="150"><desc>green spaceship that looks like a frog. Generated by ChatSVG.</desc>
      <rect width="150" height="150" fill="#668000"></rect>
      <ellipse cx="75" cy="80" rx="50" ry="25" fill="#99CC00"></ellipse>
      <ellipse cx="75" cy="70" rx="30" ry="20" fill="#FFFFFF"></ellipse>
      <ellipse cx="75" cy="70" rx="25" ry="15" fill="#003300"></ellipse>
      <ellipse cx="75" cy="70" rx="15" ry="10" fill="#FFFFFF"></ellipse>
      <ellipse cx="75" cy="70" rx="10" ry="5" fill="#003300"></ellipse>
      <ellipse cx="75" cy="60" rx="25" ry="5" fill="#FF0000"></ellipse>
      <ellipse cx="85" cy="60" rx="5" ry="5" fill="#FF0000"></ellipse>
      <ellipse cx="65" cy="60" rx="5" ry="5" fill="#FF0000"></ellipse>
      </svg><svg xmlns="http://www.w3.org/2000/svg" width="150" height="150"><desc>green spaceship that looks like a frog. Generated by ChatSVG.</desc>
      <rect width="150" height="150" fill="#4C9900"></rect>
      <ellipse cx="75" cy="80" rx="30" ry="15" fill="#808080"></ellipse>
      <ellipse cx="75" cy="70" rx="20" ry="13" fill="#008C00"></ellipse>
      <ellipse cx="75" cy="60" rx="10" ry="5" fill="#806000"></ellipse>
      <ellipse cx="75" cy="60" rx="20" ry="5" fill="#FFFF00"></ellipse>
      <ellipse cx="75" cy="70" rx="15" ry="5" fill="#000080"></ellipse>
      <path d="M 75 80 L 70 90 L 80 90 Z" fill="#007FFF"></path>
      </svg>